# xmcd
#
# Track frame offsets:
#	150
#	18079
#	38433
#	56388
#	78863
#	106873
#	137598
#	157053
#	178627
#	208540
#	233976
#	262298
#	280229
#	297132
#
# Disc length: 4553 seconds
# Revision: 0
# Processed by: cddbd v1.5.2PL0 Copyright (c) Steve Scherf et al.
# Submitted via: dBpowerAMP V12.0
#
DISCID=b911c70e
DTITLE=Terry Quiett Band - A Night at the Orpheum
DYEAR=2012
DGENRE=Blues
TTITLE0=Getting Through to Me (Live)
TTITLE1=Judgement Day (Live)
TTITLE2=Big Man Boogie (Live)
TTITLE3=Wheelhouse (Live)
TTITLE4=Caroline (Live)
TTITLE5=Long Saturday Night (Live)
TTITLE6=The Horizon (Live)
TTITLE7=Cover Me (Live)
TTITLE8=Gimme Some (Live)
TTITLE9=Weak-Minded Man (Live)
TTITLE10=Hear My Train A Comin' (Live)
TTITLE11=Just Friends (Live)
TTITLE12=Short Dress (Live)
TTITLE13=Forever Man (Live)
EXTD=
EXTT0=
EXTT1=
EXTT2=
EXTT3=
EXTT4=
EXTT5=
EXTT6=
EXTT7=
EXTT8=
EXTT9=
EXTT10=
EXTT11=
EXTT12=
EXTT13=
PLAYORDER=
